<?xml version="1.0" standalone="no"?>
<!DOCTYPE svg PUBLIC "-//W3C//DTD SVG 20010904//EN"
 "http://www.w3.org/TR/2001/REC-SVG-20010904/DTD/svg10.dtd">
<svg version="1.0" xmlns="http://www.w3.org/2000/svg"
 width="260.000000pt" height="260.000000pt" viewBox="0 0 260.000000 260.000000"
 preserveAspectRatio="xMidYMid meet">
<metadata>
Created by potrace 1.11, written by Peter Selinger 2001-2013
</metadata>
<g transform="translate(0.000000,260.000000) scale(0.100000,-0.100000)"
fill="#000000" stroke="none">
<path d="M1105 2166 c-37 -30 -300 -231 -444 -338 l-64 -48 -118 0 c-126 0
-161 -8 -192 -43 -49 -57 -48 -38 -45 -655 3 -646 -1 -606 77 -650 l39 -22
953 3 c927 2 955 3 980 21 14 11 34 31 45 45 18 25 19 47 19 616 0 569 -1 591
-19 616 -11 14 -31 34 -45 45 -25 18 -49 19 -563 22 -416 2 -538 5 -539 15 0
6 -2 19 -3 27 -2 8 -6 58 -10 110 -4 52 -9 118 -12 145 -3 28 -7 65 -9 84 -2
18 -5 35 -7 36 -2 2 -21 -11 -43 -29z"/>
</g>
</svg>
